<svg xmlns="http://www.w3.org/2000/svg" width="512" height="512" viewBox="0 0 512 512">
  <defs>
    <linearGradient id="g" x1="0" y1="0" x2="1" y2="1">
      <stop offset="0" stop-color="#1E3A8A"/>
      <stop offset="1" stop-color="#0B122A"/>
    </linearGradient>
    <filter id="s" x="-20%" y="-20%" width="140%" height="140%">
      <feDropShadow dx="0" dy="18" stdDeviation="18" flood-color="#000000" flood-opacity="0.22"/>
    </filter>
  </defs>
  <rect x="64" y="64" width="384" height="384" rx="92" fill="url(#g)" filter="url(#s)"/>
  <g fill="#ffffff">
    <path d="M173 175h166c16 0 30 13 30 30v102c0 16-14 30-30 30H173c-16 0-30-14-30-30V205c0-17 14-30 30-30Zm0 34c-2 0-4 2-4 4v86c0 2 2 4 4 4h166c2 0 4-2 4-4v-86c0-2-2-4-4-4H173Z"/>
    <path d="M191 253h92a10 10 0 0 1 0 20h-92a10 10 0 0 1 0-20Z"/>
    <path d="M191 223h130a10 10 0 0 1 0 20H191a10 10 0 0 1 0-20Z"/>
    <path d="M191 283h62a10 10 0 0 1 0 20h-62a10 10 0 0 1 0-20Z"/>
  </g>
  <g font-family="Cairo, system-ui, -apple-system, Segoe UI, sans-serif" font-size="56" font-weight="800" fill="#ffffff">
    <text x="256" y="385" text-anchor="middle">INV</text>
  </g>
</svg>

